<svg width="60" height="60" viewBox="0 0 60 60" fill="none" xmlns="http://www.w3.org/2000/svg">
<path fill-rule="evenodd" clip-rule="evenodd" d="M47.929 29.026L52.7999 29.0259C52.3873 24.1397 50.4997 19.0863 47.2212 15.4399C43.9426 11.7935 39.5626 9.31799 34.7476 8.39005C29.9326 7.46211 24.9463 8.13258 20.5474 10.2994C16.1485 12.4662 12.5779 16.0108 10.3789 20.3937C8.17998 24.7766 7.47306 29.7579 8.36574 34.5795C9.25842 39.4012 11.7018 43.7992 15.3241 47.1044C18.9465 50.4096 23.5494 52.4409 28.4324 52.8893C33.3155 53.3376 38.5699 51.7975 42.7336 49.2072L45.542 53.1003L47.425 42.1018L37.0092 41.1905L39.6932 45.1344L39.8535 45.1604C36.6622 47.2876 33.2084 48.2577 29.381 48.0135C25.5535 47.7692 21.9122 46.2744 19.0172 43.7589C16.1221 41.2433 14.1336 37.8464 13.3575 34.0905C12.5813 30.3346 13.0605 26.4277 14.7214 22.9707C16.3822 19.5137 19.1327 16.6981 22.5499 14.9567C25.967 13.2154 29.8616 12.6449 33.6347 13.3329C37.4077 14.0209 40.8503 15.9293 43.4329 18.7646C46.0155 21.6 47.5952 25.2053 47.929 29.026Z" fill="#FBFEFF" fill-opacity="0.95"/>
<path d="M27 18.5996V33.5996H37V28.5996H32V18.5996H27Z" fill="#FBFEFF" fill-opacity="0.95"/>
</svg>
