<svg width="35" height="12" viewBox="0 0 35 12" fill="none" xmlns="http://www.w3.org/2000/svg">
<path d="M0.14 11V0.499999H4.565C5.225 0.499999 5.825 0.649999 6.365 0.95C6.905 1.24 7.335 1.65 7.655 2.18C7.975 2.71 8.135 3.33 8.135 4.04C8.135 4.72 7.975 5.33 7.655 5.87C7.345 6.4 6.92 6.815 6.38 7.115C5.84 7.415 5.225 7.565 4.535 7.565H1.58V11H0.14ZM1.58 6.29H4.37C4.8 6.29 5.19 6.205 5.54 6.035C5.9 5.855 6.18 5.595 6.38 5.255C6.59 4.915 6.695 4.51 6.695 4.04C6.695 3.56 6.59 3.155 6.38 2.825C6.17 2.485 5.89 2.225 5.54 2.045C5.19 1.865 4.805 1.775 4.385 1.775H1.58V6.29ZM12.7086 11.18C11.9686 11.18 11.3286 11.005 10.7886 10.655C10.2486 10.295 9.83359 9.81 9.54359 9.2C9.25359 8.59 9.10859 7.915 9.10859 7.175C9.10859 6.425 9.26859 5.75 9.58859 5.15C9.90859 4.54 10.3686 4.06 10.9686 3.71C11.5686 3.35 12.2886 3.17 13.1286 3.17C13.9386 3.17 14.6336 3.345 15.2136 3.695C15.7936 4.045 16.2386 4.52 16.5486 5.12C16.8686 5.72 17.0286 6.39 17.0286 7.13V11H15.6336V9.44H15.6036C15.4536 9.73 15.2486 10.01 14.9886 10.28C14.7386 10.54 14.4236 10.755 14.0436 10.925C13.6636 11.095 13.2186 11.18 12.7086 11.18ZM13.0686 9.995C13.5686 9.995 14.0086 9.875 14.3886 9.635C14.7786 9.385 15.0786 9.045 15.2886 8.615C15.5086 8.175 15.6186 7.685 15.6186 7.145C15.6186 6.615 15.5136 6.14 15.3036 5.72C15.1036 5.3 14.8136 4.97 14.4336 4.73C14.0536 4.48 13.6086 4.355 13.0986 4.355C12.5586 4.355 12.0936 4.48 11.7036 4.73C11.3236 4.98 11.0286 5.32 10.8186 5.75C10.6186 6.17 10.5186 6.65 10.5186 7.19C10.5186 7.71 10.6186 8.185 10.8186 8.615C11.0186 9.035 11.3086 9.37 11.6886 9.62C12.0686 9.87 12.5286 9.995 13.0686 9.995ZM19.1809 11V5.525C19.1809 4.845 19.3709 4.315 19.7509 3.935C20.1409 3.545 20.6759 3.35 21.3559 3.35H22.9309V4.535H21.6109C21.2809 4.535 21.0209 4.63 20.8309 4.82C20.6509 5.01 20.5609 5.275 20.5609 5.615V11H19.1809ZM24.2063 11V0.0499997H25.5863V6.56H27.6863L29.6963 3.35H31.2263L29.0513 6.77C29.7713 6.98 30.3313 7.375 30.7313 7.955C31.1413 8.525 31.3463 9.19 31.3463 9.95V11H29.9513V9.95C29.9513 9.53 29.8563 9.155 29.6663 8.825C29.4863 8.495 29.2313 8.235 28.9013 8.045C28.5713 7.845 28.1913 7.745 27.7613 7.745H25.5863V11H24.2063ZM33.3177 11V3.35H34.7127V11H33.3177ZM34.0227 2.135C33.7727 2.135 33.5527 2.045 33.3627 1.865C33.1827 1.675 33.0927 1.455 33.0927 1.205C33.0927 0.954999 33.1827 0.739999 33.3627 0.559999C33.5527 0.369999 33.7727 0.274999 34.0227 0.274999C34.2727 0.274999 34.4877 0.369999 34.6677 0.559999C34.8577 0.739999 34.9527 0.954999 34.9527 1.205C34.9527 1.455 34.8577 1.675 34.6677 1.865C34.4877 2.045 34.2727 2.135 34.0227 2.135Z" fill="#00B8C5"/>
</svg>
